<svg xmlns="http://www.w3.org/2000/svg" viewBox="0 0 420 420" role="img" aria-label="Abstract pixel avatar">
  <rect width="420" height="420" rx="40" fill="#07111f"/>
  <g opacity=".28" stroke="#5ee7ff" stroke-width="2">
    <path d="M40 80h340M40 150h340M40 220h340M40 290h340M40 360h340"/>
    <path d="M80 40v340M150 40v340M220 40v340M290 40v340M360 40v340"/>
  </g>
  <g transform="translate(95 82)" shape-rendering="crispEdges">
    <rect x="80" y="10" width="70" height="30" fill="#10233a"/>
    <rect x="50" y="40" width="130" height="40" fill="#152b46"/>
    <rect x="30" y="80" width="170" height="130" fill="#203b5c"/>
    <rect x="50" y="100" width="130" height="70" fill="#07111f"/>
    <rect x="75" y="118" width="80" height="30" fill="#5ee7ff"/>
    <rect x="90" y="125" width="50" height="14" fill="#e7f1ff"/>
    <rect x="15" y="115" width="30" height="75" fill="#10233a"/>
    <rect x="200" y="115" width="30" height="75" fill="#10233a"/>
    <rect x="60" y="210" width="110" height="38" fill="#152b46"/>
    <rect x="82" y="248" width="28" height="30" fill="#5ee7ff"/>
    <rect x="130" y="248" width="28" height="30" fill="#ff4fd8"/>
    <rect x="-20" y="42" width="24" height="10" fill="#ff4fd8"/>
    <rect x="230" y="72" width="34" height="10" fill="#5ee7ff"/>
    <rect x="210" y="252" width="18" height="18" fill="#ff4fd8"/>
    <rect x="20" y="260" width="14" height="14" fill="#5ee7ff"/>
  </g>
  <circle cx="210" cy="210" r="150" fill="none" stroke="#5ee7ff" stroke-opacity=".22" stroke-width="10"/>
</svg>
